<?xml version="1.0" standalone="no"?><!DOCTYPE svg PUBLIC "-//W3C//DTD SVG 1.1//EN" "http://www.w3.org/Graphics/SVG/1.1/DTD/svg11.dtd"><svg class="icon" width="200px" height="199.22px" viewBox="0 0 1028 1024" version="1.1" xmlns="http://www.w3.org/2000/svg"><path d="M491.734 213.659l-212.056 211.407c-4.8 4.787-7.434 11.165-7.434 17.95 0 6.836 2.673 13.265 7.511 18.102 9.219 9.203 23.64 10.107 33.759 2.165l172.531-171.945 0 502.568c0 14.028 11.469 25.447 25.574 25.447s25.563-11.419 25.562-25.447l0-502.555 176.603 176.107c10.54 5.296 22.709 3.653 30.641-4.253 4.735-4.735 7.332-11.139 7.333-18.038 0-7.587-3.055-14.83-8.605-20.381l-14.093-14.106-38.841-38.712-7.178-7.307-151.525-150.979c-5.028-5.002-11.915-7.537-19.4-7.166l-0.496 0.026-0.509-0.025c-7.498-0.369-14.386 2.164-19.374 7.142l0 0zM491.734 213.659z" fill="#d81e06" /></svg>