<?xml version="1.0" standalone="no"?><!DOCTYPE svg PUBLIC "-//W3C//DTD SVG 1.1//EN" "http://www.w3.org/Graphics/SVG/1.1/DTD/svg11.dtd"><svg class="icon" width="220px" height="219.79px" viewBox="0 0 1025 1024" version="1.1" xmlns="http://www.w3.org/2000/svg"><path d="M894.293333 519.530667l129.770667-54.144-39.552-166.442667-145.472 15.573333c-14.677333-24.768-31.701333-47.402667-50.837333-67.626667l53.76-130.624-145.578667-89.834667-90.858667 112.96c-31.488-8.256-63.893333-12.394667-96.682667-12.565333L451.904 0l-165.333333 44.416 19.434667 140.309333c-22.826667 14.165333-43.776 30.293333-62.421333 47.936L117.994667 180.928 28.245333 326.613333l108.053333 87.381333c-7.893333 29.738667-12.544 60.586667-13.205333 91.690667L0 556.821333l39.68 166.656L177.066667 708.693333c15.872 27.605333 34.474667 52.565333 56.021333 74.56L182.464 906.026667l145.578667 89.770667L415.36 887.466667c29.653333 7.36 59.797333 11.456 90.624 11.754667l51.712 124.778667 166.378667-39.658667-15.04-141.589333c25.706667-15.68 49.429333-33.642667 69.845333-53.888l127.530667 52.565333 89.706667-145.813333-112.874667-91.072C890.048 576.725333 893.845333 548.224 894.293333 519.530667zM512.042667 761.322667c-137.152 0-248.32-111.616-248.32-249.344s111.168-249.322667 248.32-249.322667c137.130667 0 248.32 111.616 248.32 249.322667S649.173333 761.322667 512.042667 761.322667z" fill="#1296db" /><path d="M512.042667 388.757333c-68.053333 0-123.221333 55.210667-123.221333 123.221333 0 68.053333 55.168 123.221333 123.221333 123.221333 68.032 0 123.2-55.168 123.2-123.221333C635.242667 443.968 580.074667 388.757333 512.042667 388.757333L512.042667 388.757333z" fill="#1296db" /></svg>