<?xml version="1.0" standalone="no"?><!DOCTYPE svg PUBLIC "-//W3C//DTD SVG 1.1//EN" "http://www.w3.org/Graphics/SVG/1.1/DTD/svg11.dtd"><svg class="icon" width="200px" height="200.00px" viewBox="0 0 1024 1024" version="1.1" xmlns="http://www.w3.org/2000/svg"><path d="M130.133333 239.786667L469.333333 45.226667a88.746667 88.746667 0 0 1 89.6 0L896 239.786667a90.026667 90.026667 0 0 1 42.666667 77.653333v389.12a90.026667 90.026667 0 0 1-42.666667 77.653333l-337.066667 194.56a88.746667 88.746667 0 0 1-89.6 0l-337.066666-194.56a90.026667 90.026667 0 0 1-42.666667-77.653333V317.44a90.026667 90.026667 0 0 1 40.533333-77.653333z m384 665.173333l341.333334-198.4L853.333333 313.6l-341.333333-194.56-341.333333 198.4v392.96l341.333333 194.56h4.266667z" fill="#1296db" /><path d="M490.666667 456.96L357.12 379.733333a42.666667 42.666667 0 0 1 0-73.813333l133.546667-77.226667a42.666667 42.666667 0 0 1 42.666666 0l133.546667 77.226667a42.666667 42.666667 0 0 1 0 73.813333l-133.546667 77.226667a42.666667 42.666667 0 0 1-42.666666 0z" fill="#1296db" /><path d="M512 370.773333l48.213333-27.733333L512 314.88l-48.213333 28.16 48.213333 27.733333zM474.88 558.08v154.453333a42.666667 42.666667 0 0 1-64 36.693334L277.333333 672a42.666667 42.666667 0 0 1-21.333333-36.693333v-154.453334a42.666667 42.666667 0 0 1 64-37.12l133.546667 77.226667a42.666667 42.666667 0 0 1 21.333333 37.12z" fill="#1296db" /><path d="M389.546667 582.4L341.333333 554.666667v55.893333l48.213334 27.733333v-55.893333zM570.453333 520.96l133.546667-77.226667a42.666667 42.666667 0 0 1 64 37.12v154.453334a42.666667 42.666667 0 0 1-21.333333 36.693333l-133.546667 77.226667a42.666667 42.666667 0 0 1-64-36.693334v-154.453333a42.666667 42.666667 0 0 1 21.333333-37.12z" fill="#1296db" /><path d="M634.453333 582.4v55.893333l48.213334-27.733333V554.666667l-48.213334 27.733333z" fill="#1296db" /></svg>