<?xml version="1.0" standalone="no"?><!DOCTYPE svg PUBLIC "-//W3C//DTD SVG 1.1//EN" "http://www.w3.org/Graphics/SVG/1.1/DTD/svg11.dtd"><svg class="icon" width="220px" height="220.00px" viewBox="0 0 1024 1024" version="1.1" xmlns="http://www.w3.org/2000/svg"><path d="M153.5744 632.2688H65.6128c-20.3264 0-36.7872 16.4608-36.7872 36.7872V932.352c0 20.3264 16.4608 36.7872 36.7872 36.7872h344.8064c20.3264 0 36.7872-16.4608 36.7872-36.7872V669.056c0-20.3264-16.4608-36.7872-36.7872-36.7872H153.5744zM748.5696 632.2688h-140.928c-20.3008 0-36.7872 16.4608-36.7872 36.7872V932.352c0 20.3264 16.4608 36.7872 36.7872 36.7872h344.8064c20.3264 0 36.7872-16.4608 36.7872-36.7872V669.056c0-20.3264-16.4608-36.7872-36.7872-36.7872h-203.8784z" fill="#e6e6e6" /><path d="M201.216 632.2688h73.5744V548.608h473.7792v83.6608h73.5488V548.608h165.7088H201.216zM475.2128 476.2624h73.5488v-84.5312h135.7056-209.2544z" fill="#bcbcbc" /><path d="M987.8272 476.2624H36.1728a36.1472 36.1472 0 1 0 0 72.3456h951.6544a36.1728 36.1728 0 1 0 0-72.3456zM684.3904 54.8864H339.6096c-20.3264 0-36.7872 16.4608-36.7872 36.7872v263.296c0 11.136 5.0688 21.0176 12.8768 27.7504L707.2256 63.0528a36.352 36.352 0 0 0-22.8352-8.1664z" fill="#e6e6e6" /><path d="M707.2256 63.0528L315.6992 382.6944c6.4512 5.5552 14.72 9.0368 23.8848 9.0368h344.8576a36.7872 36.7872 0 0 0 36.7104-36.7616V91.6736a36.3776 36.3776 0 0 0-13.9264-28.6208z" fill="#e6e6e6" /><path d="M638.1824 100.0448h-252.3648c-14.8736 0-26.9312 12.0576-26.9312 26.9056v192.7168c0 8.0896 3.6352 15.2576 9.2928 20.1984l286.5664-233.9584a26.4704 26.4704 0 0 0-16.5632-5.8624z" fill="#61c2f7" /><path d="M654.7456 105.8816l-286.5664 233.9584c4.736 4.1216 10.8544 6.7328 17.6384 6.7328h252.416a26.9056 26.9056 0 0 0 26.8544-26.9056V126.9504a26.6752 26.6752 0 0 0-10.3424-21.0688z" fill="#43b6ff" /><path d="M364.1856 677.4272H111.8208c-14.8736 0-26.9312 12.0576-26.9312 26.9056v192.7168c0 8.0896 3.6352 15.2576 9.2928 20.1984l286.5664-233.9584a26.4704 26.4704 0 0 0-16.5632-5.8624z" fill="#61c2f7" /><path d="M380.7488 683.264L94.1824 917.248c4.736 4.1216 10.8544 6.7328 17.6384 6.7328h252.416a26.9056 26.9056 0 0 0 26.8544-26.9056v-192.7168a26.624 26.624 0 0 0-10.3424-21.0944z" fill="#43b6ff" /><path d="M906.24 677.4272h-252.3648c-14.8736 0-26.9312 12.0576-26.9312 26.9056v192.7168c0 8.0896 3.6352 15.2576 9.2928 20.1984l286.5664-233.9584a26.5216 26.5216 0 0 0-16.5632-5.8624z" fill="#61c2f7" /><path d="M922.8032 683.264l-286.5664 233.984c4.736 4.1216 10.8544 6.7328 17.6384 6.7328h252.416a26.9056 26.9056 0 0 0 26.8544-26.9056v-192.7168c0-8.6016-4.096-16.1792-10.3424-21.0944z" fill="#43b6ff" /></svg>