<?xml version="1.0" standalone="no"?><!DOCTYPE svg PUBLIC "-//W3C//DTD SVG 1.1//EN" "http://www.w3.org/Graphics/SVG/1.1/DTD/svg11.dtd"><svg class="icon" width="220px" height="220.00px" viewBox="0 0 1024 1024" version="1.1" xmlns="http://www.w3.org/2000/svg"><path d="M1023.953953 861.981769c0 89.474725-72.539413 162.017208-162.006975 162.017208H162.028465c-89.467562 0-162.006975-72.543506-162.006976-162.017208V162.018231c0-89.474725 72.539413-162.018231 162.006976-162.018231h699.919536c89.467562 0 162.006975 72.54453 162.006975 162.018231v699.963538z" fill="#3ca8e0" /><path d="M804.081423 395.931208H377.130455c-0.587364 0-1.068306-0.480942-1.068306-1.068306V287.129763c0-0.587364 0.480942-1.068306 1.068306-1.068306h426.949945c0.587364 0 1.068306 0.480942 1.068306 1.068306v107.733139a1.069329 1.069329 0 0 1-1.067283 1.068306zM804.081423 585.706978H377.130455c-0.587364 0-1.068306-0.480942-1.068306-1.068306V476.905532c0-0.587364 0.480942-1.068306 1.068306-1.068306h426.949945c0.587364 0 1.068306 0.480942 1.068306 1.068306V584.638672a1.069329 1.069329 0 0 1-1.067283 1.068306zM804.081423 775.482747H377.130455c-0.587364 0-1.068306-0.480942-1.068306-1.068306V666.681302c0-0.587364 0.480942-1.068306 1.068306-1.068306h426.949945c0.587364 0 1.068306 0.480942 1.068306 1.068306v107.733139a1.070353 1.070353 0 0 1-1.067283 1.068306zM329.747398 395.931208h-98.777378a0.98235 0.98235 0 0 1-0.979281-0.97928V287.040737a0.98235 0.98235 0 0 1 0.979281-0.97928h98.777378a0.98235 0.98235 0 0 1 0.97928 0.97928v107.911191c0 0.539269-0.440011 0.979281-0.97928 0.97928zM329.747398 585.706978h-98.777378a0.98235 0.98235 0 0 1-0.979281-0.979281V476.816507a0.98235 0.98235 0 0 1 0.979281-0.979281h98.777378a0.98235 0.98235 0 0 1 0.97928 0.979281v107.91119c0 0.539269-0.440011 0.979281-0.97928 0.979281zM329.747398 775.482747h-98.777378a0.98235 0.98235 0 0 1-0.979281-0.97928V666.592276a0.98235 0.98235 0 0 1 0.979281-0.97928h98.777378a0.98235 0.98235 0 0 1 0.97928 0.97928v107.911191a0.98235 0.98235 0 0 1-0.97928 0.97928z" fill="#ffffff" /></svg>