<?xml version="1.0" standalone="no"?><!DOCTYPE svg PUBLIC "-//W3C//DTD SVG 1.1//EN" "http://www.w3.org/Graphics/SVG/1.1/DTD/svg11.dtd"><svg class="icon" width="220px" height="220.00px" viewBox="0 0 1024 1024" version="1.1" xmlns="http://www.w3.org/2000/svg"><path d="M1000.960773 607.194082c-28.287253 22.605857-55.975872 44.780903-84.074837 67.280336-27.878954-22.283516-55.546084-44.458561-83.83129-67.064418 1.750877-1.562589 3.149736-2.907213 4.682649-4.146437 13.912871-11.19497 27.937283-22.228257 41.741683-33.585933 1.828648-1.50733 3.713578-4.251837 3.713578-6.458085 0.2415-40.099277 0.159636-80.142272 0.1361-120.296807 0-0.753153-0.245593-1.561565-0.511653-3.175319-3.149736 1.291412-5.974062 2.367931-8.748245 3.552919-99.520621 43.326784-200.467731 82.887802-303.970036 115.773793-17.545608 5.544273-35.580357 9.79611-53.637618 13.350053-6.969739 1.292436-14.881942-0.430812-22.013363-2.100848-44.512796-10.495028-87.383186-26.211988-130.253576-41.768289-90.693582-32.939203-180.579775-67.923996-267.533173-109.85499-20.721951-10.009981-40.420595-22.01234-60.443627-33.368992-3.875261-2.261507-7.104815-5.705955-10.388605-8.829086-3.63376-3.496637-3.821025-7.642051 0.054235-10.871605 6.377244-5.221932 12.675694-10.980076 19.968797-14.640442 33.559327-16.792455 66.849524-34.341133 101.297081-49.142234 108.428501-46.664809 218.605833-88.917122 331.126536-124.817774 6.700609-2.153036 13.563924-3.875261 20.318768-5.812379 9.658987-2.852978 19.212574-2.583848 28.714995 0.591471 46.396703 15.556301 93.089142 30.195719 139.081639 46.88175 87.385233 31.594579 174.041872 65.233724 258.277368 104.634082 21.201881 9.903557 41.469484 21.797445 62.027705 32.993438 3.445472 1.88493 6.515391 4.520967 9.391904 7.15905 6.192026 5.703909 6.541997 9.741875 0.058328 14.909571-8.262174 6.565533-17.304108 12.109806-26.02677 18.139126-0.159636 0.106424-0.3776 0.160659-0.537236 0.268106-6.242168 3.607154-14.881942 5.866614-18.031679 11.30344-3.176342 5.489014-0.967024 14.155395-0.967024 21.366633-0.027629 43.653219 0.023536 87.304392-0.107447 130.902352-0.027629 4.573155 1.103124 7.534604 4.868891 10.440793C970.441689 582.543659 985.241766 594.600253 1000.960773 607.194082zM225.274208 543.466666c2.717901 1.022283 4.817726 1.775436 6.862291 2.581802 70.079078 28.097942 140.534733 55.224766 212.551954 78.047564 19.322068 6.133697 39.021735 11.301394 58.855456 15.662725 7.372921 1.613754 15.985066 1.076518 23.252587-1.130753 40.692794-12.164041 81.545224-24.112164 121.589242-38.214347 48.279586-17.062608 95.804996-36.278251 143.680377-54.469566 1.88493-0.754177 3.795443-1.399883 6.515391-2.367931 0 3.013637 0 5.490038 0 7.857968 0 77.506235-0.107447 155.01247 0.186242 232.465492 0.027629 7.104815-2.420119 11.357675-7.586792 15.610536-43.464931 35.84437-92.875271 60.012815-146.672524 75.729775-58.72038 17.117866-118.599142 21.422915-179.421392 16.57756-49.760311-3.981684-98.094132-13.994736-144.840806-31.53932-31.594579-11.841699-61.521169-27.021423-89.321328-46.237067-4.172019-2.90619-5.786797-5.975085-5.786797-11.141758 0.188288-83.965343 0.135076-167.929664 0.135076-251.841795C225.274208 548.849256 225.274208 546.588773 225.274208 543.466666z" fill="#1296db" /></svg>