<?xml version="1.0" standalone="no"?>
<!DOCTYPE svg PUBLIC "-//W3C//DTD SVG 20010904//EN"
 "http://www.w3.org/TR/2001/REC-SVG-20010904/DTD/svg10.dtd">
<svg version="1.0" xmlns="http://www.w3.org/2000/svg"
 width="100.000000pt" height="100.000000pt" viewBox="0 0 100.000000 100.000000"
 preserveAspectRatio="xMidYMid meet">
<metadata>
Created by potrace 1.15, written by Peter Selinger 2001-2017
</metadata>
<g transform="translate(0.000000,100.000000) scale(0.100000,-0.100000)"
fill="#000000" stroke="none">
<path d="M348 981 c-214 -69 -348 -254 -348 -481 0 -287 213 -500 500 -500
287 0 500 213 500 500 0 227 -136 415 -349 480 -83 26 -223 26 -303 1z m227
-310 c105 -47 144 -179 81 -273 -65 -97 -197 -113 -282 -35 -39 36 -68 105
-52 124 13 16 38 5 38 -16 0 -27 37 -79 69 -96 99 -50 211 16 211 125 0 107
-114 175 -210 125 -35 -18 -36 -23 -12 -41 27 -20 2 -36 -54 -32 l-49 3 -3 48
c-2 37 1 49 14 54 10 4 22 0 29 -10 10 -14 13 -15 27 -1 20 20 85 43 123 43
17 0 48 -8 70 -18z"/>
</g>
</svg>
